<?xml version="1.0" encoding="iso-8859-1"?>
<!-- Generator: Adobe Illustrator 19.0.0, SVG Export Plug-In . SVG Version: 6.00 Build 0)  -->
<svg version="1.1" id="Capa_1" xmlns="http://www.w3.org/2000/svg" xmlns:xlink="http://www.w3.org/1999/xlink" x="0px" y="0px"
	 viewBox="0 0 512 512" style="enable-background:new 0 0 512 512;" xml:space="preserve" fill="#0065FC">
		<path d="M480,80H32C14.368,80,0,94.368,0,112v288c0,17.664,14.368,32,32,32h448c17.664,0,32-14.336,32-32V112
			C512,94.368,497.664,80,480,80z M144,176H80c-8.832,0-16-7.168-16-16c0-8.832,7.168-16,16-16h64c8.832,0,16,7.168,16,16
			C160,168.832,152.832,176,144,176z M256,240c26.464,0,48,21.536,48,48c0,20.832-13.408,38.432-32,45.056V352
			c0,8.832-7.168,16-16,16c-8.832,0-16-7.168-16-16v-16h-16c-8.832,0-16-7.168-16-16c0-8.832,7.168-16,16-16h32
			c8.832,0,16-7.2,16-16s-7.168-16-16-16c-26.464,0-48-21.536-48-48c0-20.832,13.408-38.432,32-45.056V160c0-8.832,7.168-16,16-16
			c8.832,0,16,7.168,16,16v16h16c8.832,0,16,7.168,16,16c0,8.832-7.168,16-16,16h-32c-8.832,0-16,7.168-16,16
			C240,232.832,247.168,240,256,240z M432,368h-64c-8.832,0-16-7.168-16-16c0-8.832,7.168-16,16-16h64c8.832,0,16,7.168,16,16
			C448,360.832,440.832,368,432,368z"/>
</svg>
