<svg id="bold" height="512" viewBox="0 0 24 24" width="512" xmlns="http://www.w3.org/2000/svg" fill="#0065FC"><path d="m23.491 11.826-5.25-1.786c-.156-.054-.326-.054-.482 0l-5.25 1.786c-.305.103-.509.388-.509.71v4.018c0 4.904 5.474 7.288 5.707 7.387.188.079.398.079.586 0 .233-.1 5.707-2.483 5.707-7.387v-4.018c0-.322-.204-.607-.509-.71zm-2.205 3.792-2.75 3.5c-.35.447-1.006.512-1.437.142l-1.75-1.5c-.42-.359-.469-.991-.108-1.41.359-.419.991-.467 1.409-.108l.958.821 2.105-2.679c.341-.434.969-.511 1.404-.168.435.339.511.968.169 1.402z"/><path d="m11 7.03c-2.99 0-5.61 1.76-6.53 4.37l-1.36 3.89c-.27.77-.04 1.6.58 2.15.71.63 1.73.77 2.6.35 1.17-.57 2.43-.92 3.71-1.03v-4.22c0-1.18.75-2.23 1.87-2.61l3.68-1.25c-1.22-1.06-2.8-1.65-4.55-1.65z"/><path d="m8.459 5.583c-.863 0-1.849-.673-2.493-1.791-.379-.656-.582-1.369-.571-2.009.013-.723.305-1.302.803-1.589.498-.288 1.145-.251 1.777.1.56.311 1.076.843 1.454 1.499.379.655.582 1.368.571 2.008-.013.722-.305 1.302-.803 1.589-.226.131-.476.193-.738.193z"/><path d="m13.541 5.583c-.262 0-.512-.062-.738-.192-.498-.288-.79-.868-.803-1.59-.011-.64.192-1.353.571-2.009.378-.656.895-1.188 1.454-1.499.633-.35 1.28-.387 1.777-.1.498.287.79.867.803 1.589.011.64-.192 1.353-.571 2.009-.644 1.118-1.631 1.792-2.493 1.792z"/><path d="m3.145 8.824c-.147 0-.3-.016-.455-.046-.597-.12-1.197-.457-1.691-.951-1.091-1.09-1.323-2.566-.53-3.359.399-.399 1.009-.551 1.668-.421.597.12 1.197.457 1.69.951 1.091 1.09 1.323 2.566.53 3.359-.305.306-.733.467-1.212.467z"/><path d="m18.855 8.824c-.479 0-.907-.162-1.212-.468-.793-.792-.561-2.268.53-3.358.493-.494 1.094-.832 1.69-.951.661-.132 1.269.021 1.668.421.793.793.561 2.269-.53 3.359-.494.494-1.095.832-1.691.951-.155.031-.307.046-.455.046zm-.328-3.472h.01z"/></svg>